<svg id="SvgjsSvg1838" width="910" height="663" xmlns="http://www.w3.org/2000/svg" version="1.1" xmlns:xlink="http://www.w3.org/1999/xlink" xmlns:svgjs="http://svgjs.com/svgjs"><defs id="SvgjsDefs1839"><pattern patternUnits="userSpaceOnUse" id="pattern_mark_0" width="300" height="300"><text x="150" y="100" fill="rgba(229,229,229,0.8)" font-size="18" transform="rotate(-45, 150, 150)" style="dominant-baseline: middle; text-anchor: middle;"></text></pattern><pattern patternUnits="userSpaceOnUse" id="pattern_mark_1" width="300" height="300"><text x="150" y="200" fill="rgba(229,229,229,0.8)" font-size="18" transform="rotate(-45, 150, 150)" style="dominant-baseline: middle; text-anchor: middle;"></text></pattern><marker id="SvgjsMarker1915" markerWidth="13" markerHeight="9" refX="3.5" refY="4.5" viewBox="0 0 13 9" orient="auto" markerUnits="userSpaceOnUse" stroke-dasharray="0,0"><path id="SvgjsPath1916" d="M13,0 L0,4.5 L13,9 L13,0" fill="#323232" stroke="#323232" stroke-width="1"></path></marker><marker id="SvgjsMarker1917" markerWidth="13" markerHeight="9" refX="9.5" refY="4.5" viewBox="0 0 13 9" orient="auto" markerUnits="userSpaceOnUse" stroke-dasharray="0,0"><path id="SvgjsPath1918" d="M0,0 L13,4.5 L0,9 L0,0" fill="#323232" stroke="#323232" stroke-width="1"></path></marker><marker id="SvgjsMarker1921" markerWidth="13" markerHeight="9" refX="3.5" refY="4.5" viewBox="0 0 13 9" orient="auto" markerUnits="userSpaceOnUse" stroke-dasharray="0,0"><path id="SvgjsPath1922" d="M13,0 L0,4.5 L13,9 L13,0" fill="#323232" stroke="#323232" stroke-width="1"></path></marker><marker id="SvgjsMarker1923" markerWidth="13" markerHeight="9" refX="9.5" refY="4.5" viewBox="0 0 13 9" orient="auto" markerUnits="userSpaceOnUse" stroke-dasharray="0,0"><path id="SvgjsPath1924" d="M0,0 L13,4.5 L0,9 L0,0" fill="#323232" stroke="#323232" stroke-width="1"></path></marker><marker id="SvgjsMarker1927" markerWidth="13" markerHeight="9" refX="3.5" refY="4.5" viewBox="0 0 13 9" orient="auto" markerUnits="userSpaceOnUse" stroke-dasharray="0,0"><path id="SvgjsPath1928" d="M13,0 L0,4.5 L13,9 L13,0" fill="#323232" stroke="#323232" stroke-width="1"></path></marker><marker id="SvgjsMarker1929" markerWidth="13" markerHeight="9" refX="9.5" refY="4.5" viewBox="0 0 13 9" orient="auto" markerUnits="userSpaceOnUse" stroke-dasharray="0,0"><path id="SvgjsPath1930" d="M0,0 L13,4.5 L0,9 L0,0" fill="#323232" stroke="#323232" stroke-width="1"></path></marker><marker id="SvgjsMarker1995" markerWidth="13" markerHeight="9" refX="3.5" refY="4.5" viewBox="0 0 13 9" orient="auto" markerUnits="userSpaceOnUse" stroke-dasharray="0,0"><path id="SvgjsPath1996" d="M13,0 L0,4.5 L13,9 L13,0" fill="#323232" stroke="#323232" stroke-width="1"></path></marker><marker id="SvgjsMarker1997" markerWidth="13" markerHeight="9" refX="9.5" refY="4.5" viewBox="0 0 13 9" orient="auto" markerUnits="userSpaceOnUse" stroke-dasharray="0,0"><path id="SvgjsPath1998" d="M0,0 L13,4.5 L0,9 L0,0" fill="#323232" stroke="#323232" stroke-width="1"></path></marker><marker id="SvgjsMarker2001" markerWidth="13" markerHeight="9" refX="3.5" refY="4.5" viewBox="0 0 13 9" orient="auto" markerUnits="userSpaceOnUse" stroke-dasharray="0,0"><path id="SvgjsPath2002" d="M13,0 L0,4.5 L13,9 L13,0" fill="#323232" stroke="#323232" stroke-width="1"></path></marker><marker id="SvgjsMarker2003" markerWidth="13" markerHeight="9" refX="9.5" refY="4.5" viewBox="0 0 13 9" orient="auto" markerUnits="userSpaceOnUse" stroke-dasharray="0,0"><path id="SvgjsPath2004" d="M0,0 L13,4.5 L0,9 L0,0" fill="#323232" stroke="#323232" stroke-width="1"></path></marker></defs><rect id="svgbackgroundid" width="910" height="663" fill="transparent"></rect><rect id="SvgjsRect1841" width="910" height="663" fill="url(#pattern_mark_0)"></rect><rect id="SvgjsRect1842" width="910" height="663" fill="url(#pattern_mark_1)"></rect><g id="SvgjsG1843" transform="translate(163,376)"><path id="SvgjsPath1844" d="M 0 4Q 0 0 4 0L 448 0Q 452 0 452 4L 452 258Q 452 262 448 262L 4 262Q 0 262 0 258Z" stroke="rgba(33,41,48,1)" stroke-width="1.5" fill-opacity="1" fill="#ffffff"></path><g id="SvgjsG1845"><text id="SvgjsText1846" font-family="微软雅黑" text-anchor="middle" font-size="13px" width="432px" fill="#323232" font-weight="400" align="middle" lineHeight="125%" anchor="middle" family="微软雅黑" size="13px" weight="400" font-style="" opacity="1" y="120.375" transform="rotate(0)"></text></g></g><g id="SvgjsG1847" transform="translate(354,359)"><path id="SvgjsPath1848" d="M 0 4Q 0 0 4 0L 66 0Q 70 0 70 4L 70 26Q 70 30 66 30L 4 30Q 0 30 0 26Z" stroke="rgba(33,41,48,1)" stroke-width="1.5" fill-opacity="1" fill="#7f8b98"></path><g id="SvgjsG1849"><text id="SvgjsText1850" font-family="微软雅黑" text-anchor="middle" font-size="13px" width="50px" fill="#ffffff" font-weight="700" align="middle" lineHeight="125%" anchor="middle" family="微软雅黑" size="13px" weight="700" font-style="" opacity="1" y="4.375" transform="rotate(0)"><tspan id="SvgjsTspan1851" dy="16.25" x="35"><tspan id="SvgjsTspan1852" style="">enp1s0</tspan></tspan></text></g></g><g id="SvgjsG1853" transform="translate(194,389)"><path id="SvgjsPath1854" d="M 0 4Q 0 0 4 0L 386 0Q 390 0 390 4L 390 30Q 390 34 386 34L 4 34Q 0 34 0 30Z" stroke="rgba(33,41,48,1)" stroke-width="1.5" fill-opacity="1" fill="#7f8b98"></path><g id="SvgjsG1855"><text id="SvgjsText1856" font-family="微软雅黑" text-anchor="middle" font-size="13px" width="370px" fill="#ffffff" font-weight="700" align="middle" lineHeight="125%" anchor="middle" family="微软雅黑" size="13px" weight="700" font-style="" opacity="1" y="6.375" transform="rotate(0)"><tspan id="SvgjsTspan1857" dy="16.25" x="195"><tspan id="SvgjsTspan1858" style="">br0</tspan></tspan></text></g></g><g id="SvgjsG1859" transform="translate(220,422)"><path id="SvgjsPath1860" d="M 0 4Q 0 0 4 0L 66 0Q 70 0 70 4L 70 26Q 70 30 66 30L 4 30Q 0 30 0 26Z" stroke="rgba(33,41,48,1)" stroke-width="1.5" fill-opacity="1" fill="#7f8b98"></path><g id="SvgjsG1861"><text id="SvgjsText1862" font-family="微软雅黑" text-anchor="middle" font-size="13px" width="50px" fill="#ffffff" font-weight="700" align="middle" lineHeight="125%" anchor="middle" family="微软雅黑" size="13px" weight="700" font-style="" opacity="1" y="4.375" transform="rotate(0)"><tspan id="SvgjsTspan1863" dy="16.25" x="35"><tspan id="SvgjsTspan1864" style="">vnet1</tspan></tspan></text></g></g><g id="SvgjsG1865" transform="translate(354,422)"><path id="SvgjsPath1866" d="M 0 4Q 0 0 4 0L 66 0Q 70 0 70 4L 70 26Q 70 30 66 30L 4 30Q 0 30 0 26Z" stroke="rgba(33,41,48,1)" stroke-width="1.5" fill-opacity="1" fill="#7f8b98"></path><g id="SvgjsG1867"><text id="SvgjsText1868" font-family="微软雅黑" text-anchor="middle" font-size="13px" width="50px" fill="#ffffff" font-weight="700" align="middle" lineHeight="125%" anchor="middle" family="微软雅黑" size="13px" weight="700" font-style="" opacity="1" y="4.375" transform="rotate(0)"><tspan id="SvgjsTspan1869" dy="16.25" x="35"><tspan id="SvgjsTspan1870" style="">vnet2</tspan></tspan></text></g></g><g id="SvgjsG1871" transform="translate(488,422)"><path id="SvgjsPath1872" d="M 0 4Q 0 0 4 0L 66 0Q 70 0 70 4L 70 26Q 70 30 66 30L 4 30Q 0 30 0 26Z" stroke="rgba(33,41,48,1)" stroke-width="1.5" fill-opacity="1" fill="#7f8b98"></path><g id="SvgjsG1873"><text id="SvgjsText1874" font-family="微软雅黑" text-anchor="middle" font-size="13px" width="50px" fill="#ffffff" font-weight="700" align="middle" lineHeight="125%" anchor="middle" family="微软雅黑" size="13px" weight="700" font-style="" opacity="1" y="4.375" transform="rotate(0)"><tspan id="SvgjsTspan1875" dy="16.25" x="35"><tspan id="SvgjsTspan1876" style="">vnet3</tspan></tspan></text></g></g><g id="SvgjsG1877" transform="translate(207,537)"><path id="SvgjsPath1878" d="M 0 4Q 0 0 4 0L 92 0Q 96 0 96 4L 96 62Q 96 66 92 66L 4 66Q 0 66 0 62Z" stroke="rgba(33,41,48,1)" stroke-width="1.5" fill-opacity="1" fill="#ffffff"></path><g id="SvgjsG1879"><text id="SvgjsText1880" font-family="微软雅黑" text-anchor="middle" font-size="13px" width="76px" fill="#323232" font-weight="400" align="middle" lineHeight="125%" anchor="middle" family="微软雅黑" size="13px" weight="400" font-style="" opacity="1" y="22.375" transform="rotate(0)"><tspan id="SvgjsTspan1881" dy="16.25" x="48"><tspan id="SvgjsTspan1882" style="">OpenWrt</tspan></tspan></text></g></g><g id="SvgjsG1883" transform="translate(341,537)"><path id="SvgjsPath1884" d="M 0 4Q 0 0 4 0L 92 0Q 96 0 96 4L 96 62Q 96 66 92 66L 4 66Q 0 66 0 62Z" stroke="rgba(33,41,48,1)" stroke-width="1.5" fill-opacity="1" fill="#ffffff"></path><g id="SvgjsG1885"><text id="SvgjsText1886" font-family="微软雅黑" text-anchor="middle" font-size="13px" width="76px" fill="#323232" font-weight="400" align="middle" lineHeight="125%" anchor="middle" family="微软雅黑" size="13px" weight="400" font-style="" opacity="1" y="22.375" transform="rotate(0)"><tspan id="SvgjsTspan1887" dy="16.25" x="48"><tspan id="SvgjsTspan1888" style="">Ubuntu 22</tspan></tspan></text></g></g><g id="SvgjsG1889" transform="translate(475,537)"><path id="SvgjsPath1890" d="M 0 4Q 0 0 4 0L 92 0Q 96 0 96 4L 96 62Q 96 66 92 66L 4 66Q 0 66 0 62Z" stroke="rgba(33,41,48,1)" stroke-width="1.5" fill-opacity="1" fill="#ffffff"></path><g id="SvgjsG1891"><text id="SvgjsText1892" font-family="微软雅黑" text-anchor="middle" font-size="13px" width="76px" fill="#323232" font-weight="400" align="middle" lineHeight="125%" anchor="middle" family="微软雅黑" size="13px" weight="400" font-style="" opacity="1" y="22.375" transform="rotate(0)"><tspan id="SvgjsTspan1893" dy="16.25" x="48"><tspan id="SvgjsTspan1894" style="">Windows 10</tspan></tspan></text></g></g><g id="SvgjsG1895" transform="translate(231,537)"><path id="SvgjsPath1896" d="M 0 4Q 0 0 4 0L 44 0Q 48 0 48 4L 48 16Q 48 20 44 20L 4 20Q 0 20 0 16Z" stroke="rgba(33,41,48,1)" stroke-width="1.5" fill-opacity="1" fill="#7f8b98"></path><g id="SvgjsG1897"><text id="SvgjsText1898" font-family="微软雅黑" text-anchor="middle" font-size="13px" width="28px" fill="#ffffff" font-weight="700" align="middle" lineHeight="125%" anchor="middle" family="微软雅黑" size="13px" weight="700" font-style="" opacity="1" y="-0.625" transform="rotate(0)"><tspan id="SvgjsTspan1899" dy="16.25" x="24"><tspan id="SvgjsTspan1900" style="">eth0</tspan></tspan></text></g></g><g id="SvgjsG1901" transform="translate(365,537)"><path id="SvgjsPath1902" d="M 0 4Q 0 0 4 0L 44 0Q 48 0 48 4L 48 16Q 48 20 44 20L 4 20Q 0 20 0 16Z" stroke="rgba(33,41,48,1)" stroke-width="1.5" fill-opacity="1" fill="#7f8b98"></path><g id="SvgjsG1903"><text id="SvgjsText1904" font-family="微软雅黑" text-anchor="middle" font-size="13px" width="28px" fill="#ffffff" font-weight="700" align="middle" lineHeight="125%" anchor="middle" family="微软雅黑" size="13px" weight="700" font-style="" opacity="1" y="-0.625" transform="rotate(0)"><tspan id="SvgjsTspan1905" dy="16.25" x="24"><tspan id="SvgjsTspan1906" style="">eth0</tspan></tspan></text></g></g><g id="SvgjsG1907" transform="translate(499,537)"><path id="SvgjsPath1908" d="M 0 4Q 0 0 4 0L 44 0Q 48 0 48 4L 48 16Q 48 20 44 20L 4 20Q 0 20 0 16Z" stroke="rgba(33,41,48,1)" stroke-width="1.5" fill-opacity="1" fill="#7f8b98"></path><g id="SvgjsG1909"><text id="SvgjsText1910" font-family="微软雅黑" text-anchor="middle" font-size="13px" width="28px" fill="#ffffff" font-weight="700" align="middle" lineHeight="125%" anchor="middle" family="微软雅黑" size="13px" weight="700" font-style="" opacity="1" y="-0.625" transform="rotate(0)"><tspan id="SvgjsTspan1911" dy="16.25" x="24"><tspan id="SvgjsTspan1912" style="">eth0</tspan></tspan></text></g></g><g id="SvgjsG1913"><path id="SvgjsPath1914" d="M255 454.70000000000005L255 494.5L255 494.5L255 534.3" stroke-dasharray="8,5" stroke="#323232" stroke-width="1.5" fill="none" marker-start="url(#SvgjsMarker1915)" marker-end="url(#SvgjsMarker1917)"></path></g><g id="SvgjsG1919"><path id="SvgjsPath1920" d="M389 454.70000000000005L389 494.5L389 494.5L389 534.3" stroke-dasharray="8,5" stroke="#323232" stroke-width="1.5" fill="none" marker-start="url(#SvgjsMarker1921)" marker-end="url(#SvgjsMarker1923)"></path></g><g id="SvgjsG1925"><path id="SvgjsPath1926" d="M523 454.70000000000005L523 494.5L523 494.5L523 534.3" stroke-dasharray="8,5" stroke="#323232" stroke-width="1.5" fill="none" marker-start="url(#SvgjsMarker1927)" marker-end="url(#SvgjsMarker1929)"></path></g><g id="SvgjsG1931" transform="translate(763,181.625)"><path id="SvgjsPath1932" d="M 0 0L 121.625 0L 121.625 48.75L 0 48.75Z" stroke="none" fill="none"></path><g id="SvgjsG1933"><text id="SvgjsText1934" font-family="微软雅黑" text-anchor="start" font-size="13px" width="122px" fill="#ffffff" font-weight="400" align="middle" lineHeight="125%" anchor="start" family="微软雅黑" size="13px" weight="400" font-style="" opacity="1" y="5.25" transform="rotate(0)"><tspan id="SvgjsTspan1935" dy="16.25" x="0"><tspan id="SvgjsTspan1936" style="">gw: 192.168.1.1ip  : </tspan></tspan><tspan id="SvgjsTspan1937" dy="16.25" x="0"><tspan id="SvgjsTspan1938" style="">192.168.1.100</tspan></tspan></text></g></g><g id="SvgjsG1939" transform="translate(163,25)"><path id="SvgjsPath1940" d="M 0 4Q 0 0 4 0L 448 0Q 452 0 452 4L 452 84Q 452 88 448 88L 4 88Q 0 88 0 84Z" stroke="rgba(33,41,48,1)" stroke-width="1.5" fill-opacity="1" fill="#ffffff"></path><g id="SvgjsG1941"><text id="SvgjsText1942" font-family="微软雅黑" text-anchor="middle" font-size="13px" width="432px" fill="#323232" font-weight="400" align="middle" lineHeight="125%" anchor="middle" family="微软雅黑" size="13px" weight="400" font-style="" opacity="1" y="33.375" transform="rotate(0)"><tspan id="SvgjsTspan1943" dy="16.25" x="226"><tspan id="SvgjsTspan1944" style="">5G CPE</tspan></tspan></text></g></g><g id="SvgjsG1945" transform="translate(61,374.25)"><path id="SvgjsPath1946" d="M 0 0L 100 0L 100 48.75L 0 48.75Z" stroke="none" fill="none"></path><g id="SvgjsG1947"><text id="SvgjsText1948" font-family="微软雅黑" text-anchor="middle" font-size="13px" width="100px" fill="#323232" font-weight="400" align="middle" lineHeight="125%" anchor="middle" family="微软雅黑" size="13px" weight="400" font-style="" opacity="1" y="5.25" transform="rotate(0)"><tspan id="SvgjsTspan1949" dy="16.25" x="50"><tspan id="SvgjsTspan1950" style="">AMD 5700U</tspan></tspan><tspan id="SvgjsTspan1951" dy="16.25" x="50"><tspan id="SvgjsTspan1952" style="">小主机</tspan></tspan></text></g></g><g id="SvgjsG1953" transform="translate(163,209)"><path id="SvgjsPath1954" d="M 0 4Q 0 0 4 0L 448 0Q 452 0 452 4L 452 50Q 452 54 448 54L 4 54Q 0 54 0 50Z" stroke="rgba(33,41,48,1)" stroke-width="1.5" fill-opacity="1" fill="#ffffff"></path><g id="SvgjsG1955"><text id="SvgjsText1956" font-family="微软雅黑" text-anchor="middle" font-size="13px" width="432px" fill="#323232" font-weight="400" align="middle" lineHeight="125%" anchor="middle" family="微软雅黑" size="13px" weight="400" font-style="" opacity="1" y="16.375" transform="rotate(0)"></text></g></g><g id="SvgjsG1957" transform="translate(355,89)"><path id="SvgjsPath1958" d="M 0 4Q 0 0 4 0L 64 0Q 68 0 68 4L 68 20Q 68 24 64 24L 4 24Q 0 24 0 20Z" stroke="rgba(33,41,48,1)" stroke-width="1.5" fill-opacity="1" fill="#7f8b98"></path><g id="SvgjsG1959"><text id="SvgjsText1960" font-family="微软雅黑" text-anchor="middle" font-size="13px" width="48px" fill="#ffffff" font-weight="400" align="middle" lineHeight="125%" anchor="middle" family="微软雅黑" size="13px" weight="400" font-style="" opacity="1" y="1.375" transform="rotate(0)"><tspan id="SvgjsTspan1961" dy="16.25" x="34"><tspan id="SvgjsTspan1962" style="">LAN</tspan></tspan></text></g></g><g id="SvgjsG1963" transform="translate(187.5,221.5)"><path id="SvgjsPath1964" d="M 0 4Q 0 0 4 0L 53.5 0Q 57.5 0 57.5 4L 57.5 25Q 57.5 29 53.5 29L 4 29Q 0 29 0 25Z" stroke="rgba(33,41,48,1)" stroke-width="1.5" fill-opacity="1" fill="#7f8b98"></path><g id="SvgjsG1965"><text id="SvgjsText1966" font-family="微软雅黑" text-anchor="middle" font-size="13px" width="38px" fill="#323232" font-weight="400" align="middle" lineHeight="125%" anchor="middle" family="微软雅黑" size="13px" weight="400" font-style="" opacity="1" y="3.875" transform="rotate(0)"><tspan id="SvgjsTspan1967" dy="16.25" x="29"><tspan id="SvgjsTspan1968" style="fill: rgb(255, 255, 255);">网口1</tspan></tspan></text></g></g><g id="SvgjsG1969" transform="translate(360.25,221.5)"><path id="SvgjsPath1970" d="M 0 4Q 0 0 4 0L 53.5 0Q 57.5 0 57.5 4L 57.5 25Q 57.5 29 53.5 29L 4 29Q 0 29 0 25Z" stroke="rgba(33,41,48,1)" stroke-width="1.5" fill-opacity="1" fill="#7f8b98"></path><g id="SvgjsG1971"><text id="SvgjsText1972" font-family="微软雅黑" text-anchor="middle" font-size="13px" width="38px" fill="#ffffff" font-weight="400" align="middle" lineHeight="125%" anchor="middle" family="微软雅黑" size="13px" weight="400" font-style="" opacity="1" y="3.875" transform="rotate(0)"><tspan id="SvgjsTspan1973" dy="16.25" x="29"><tspan id="SvgjsTspan1974" style="">网口3</tspan></tspan></text></g></g><g id="SvgjsG1975" transform="translate(273.875,221.5)"><path id="SvgjsPath1976" d="M 0 4Q 0 0 4 0L 53.5 0Q 57.5 0 57.5 4L 57.5 25Q 57.5 29 53.5 29L 4 29Q 0 29 0 25Z" stroke="rgba(33,41,48,1)" stroke-width="1.5" fill-opacity="1" fill="#7f8b98"></path><g id="SvgjsG1977"><text id="SvgjsText1978" font-family="微软雅黑" text-anchor="middle" font-size="13px" width="38px" fill="#ffffff" font-weight="400" align="middle" lineHeight="125%" anchor="middle" family="微软雅黑" size="13px" weight="400" font-style="" opacity="1" y="3.875" transform="rotate(0)"><tspan id="SvgjsTspan1979" dy="16.25" x="29"><tspan id="SvgjsTspan1980" style="">网口2</tspan></tspan></text></g></g><g id="SvgjsG1981" transform="translate(446.625,221.5)"><path id="SvgjsPath1982" d="M 0 4Q 0 0 4 0L 53.5 0Q 57.5 0 57.5 4L 57.5 25Q 57.5 29 53.5 29L 4 29Q 0 29 0 25Z" stroke="rgba(33,41,48,1)" stroke-width="1.5" fill-opacity="1" fill="#7f8b98"></path><g id="SvgjsG1983"><text id="SvgjsText1984" font-family="微软雅黑" text-anchor="middle" font-size="13px" width="38px" fill="#ffffff" font-weight="400" align="middle" lineHeight="125%" anchor="middle" family="微软雅黑" size="13px" weight="400" font-style="" opacity="1" y="3.875" transform="rotate(0)"><tspan id="SvgjsTspan1985" dy="16.25" x="29"><tspan id="SvgjsTspan1986" style="">网口4</tspan></tspan></text></g></g><g id="SvgjsG1987" transform="translate(533,221.5)"><path id="SvgjsPath1988" d="M 0 4Q 0 0 4 0L 53.5 0Q 57.5 0 57.5 4L 57.5 25Q 57.5 29 53.5 29L 4 29Q 0 29 0 25Z" stroke="rgba(33,41,48,1)" stroke-width="1.5" fill-opacity="1" fill="#7f8b98"></path><g id="SvgjsG1989"><text id="SvgjsText1990" font-family="微软雅黑" text-anchor="middle" font-size="13px" width="38px" fill="#ffffff" font-weight="400" align="middle" lineHeight="125%" anchor="middle" family="微软雅黑" size="13px" weight="400" font-style="" opacity="1" y="3.875" transform="rotate(0)"><tspan id="SvgjsTspan1991" dy="16.25" x="29"><tspan id="SvgjsTspan1992" style="">网口5</tspan></tspan></text></g></g><g id="SvgjsG1993"><path id="SvgjsPath1994" d="M389 115.69999999999999L389 167.25L216.25 167.25L216.25 218.8" stroke="#323232" stroke-width="1.5" fill="none" marker-start="url(#SvgjsMarker1995)" marker-end="url(#SvgjsMarker1997)"></path></g><g id="SvgjsG1999"><path id="SvgjsPath2000" d="M389 356.3L389 304.75L302.625 304.75L302.625 253.2" stroke="#323232" stroke-width="1.5" fill="none" marker-start="url(#SvgjsMarker2001)" marker-end="url(#SvgjsMarker2003)"></path></g><g id="SvgjsG2005" transform="translate(63,216)"><path id="SvgjsPath2006" d="M 0 0L 100 0L 100 40L 0 40Z" stroke="none" fill="none"></path><g id="SvgjsG2007"><text id="SvgjsText2008" font-family="微软雅黑" text-anchor="middle" font-size="13px" width="100px" fill="#323232" font-weight="400" align="middle" lineHeight="125%" anchor="middle" family="微软雅黑" size="13px" weight="400" font-style="" opacity="1" y="9.375" transform="rotate(0)"><tspan id="SvgjsTspan2009" dy="16.25" x="50"><tspan id="SvgjsTspan2010" style="">5口千兆交换机</tspan></tspan></text></g></g><g id="SvgjsG2011" transform="translate(63,51.625)"><path id="SvgjsPath2012" d="M 0 0L 100 0L 100 40L 0 40Z" stroke="none" fill="none"></path><g id="SvgjsG2013"><text id="SvgjsText2014" font-family="微软雅黑" text-anchor="middle" font-size="13px" width="100px" fill="#323232" font-weight="400" align="middle" lineHeight="125%" anchor="middle" family="微软雅黑" size="13px" weight="400" font-style="" opacity="1" y="9.375" transform="rotate(0)"><tspan id="SvgjsTspan2015" dy="16.25" x="50"><tspan id="SvgjsTspan2016" style="">VN009</tspan></tspan></text></g></g><g id="SvgjsG2017" transform="translate(417.75,80)"><path id="SvgjsPath2018" d="M 0 0L 100 0L 100 40L 0 40Z" stroke="none" fill="none"></path><g id="SvgjsG2019"><text id="SvgjsText2020" font-family="微软雅黑" text-anchor="middle" font-size="13px" width="100px" fill="#323232" font-weight="400" align="middle" lineHeight="125%" anchor="middle" family="微软雅黑" size="13px" weight="400" font-style="" opacity="1" y="9.375" transform="rotate(0)"><tspan id="SvgjsTspan2021" dy="16.25" x="50"><tspan id="SvgjsTspan2022" style="">192.168.1.1</tspan></tspan></text></g></g><g id="SvgjsG2023" transform="translate(622,379.125)"><path id="SvgjsPath2024" d="M 0 0L 116 0L 132 16L 132 53.75L 0 53.75L 0 0Z" stroke="none" fill-opacity="1" fill="#fff7bc"></path><path id="SvgjsPath2025" d="M 116 0L 116 16L 132 16Z" stroke="none" fill-opacity="1" fill="#e4d089"></path><path id="SvgjsPath2026" d="M 0 0L 116 0L 132 16L 132 53.75L 0 53.75L 0 0Z" stroke="none" fill="none"></path><g id="SvgjsG2027"><text id="SvgjsText2028" font-family="微软雅黑" text-anchor="start" font-size="13px" width="112px" fill="#323232" font-weight="400" align="middle" lineHeight="125%" anchor="start" family="微软雅黑" size="13px" weight="400" font-style="" opacity="1" y="7.75" transform="rotate(0)"><tspan id="SvgjsTspan2029" dy="16.25" x="10"><tspan id="SvgjsTspan2030" style="">gw: 192.168.1.1</tspan></tspan><tspan id="SvgjsTspan2031" dy="16.25" x="10"><tspan id="SvgjsTspan2032" style="">ip  : 192.168.1.100</tspan></tspan></text></g></g><g id="SvgjsG2033"><path id="SvgjsPath2034" d="M622 406L584.75 406" stroke-dasharray="3,3" stroke="#323232" stroke-width="1.5" fill="none"></path></g><g id="SvgjsG2035" transform="translate(25,509)"><path id="SvgjsPath2036" d="M 0 0L 116 0L 132 16L 132 122L 0 122L 0 0Z" stroke="none" fill-opacity="1" fill="#fff7bc"></path><path id="SvgjsPath2037" d="M 116 0L 116 16L 132 16Z" stroke="none" fill-opacity="1" fill="#e4d089"></path><path id="SvgjsPath2038" d="M 0 0L 116 0L 132 16L 132 122L 0 122L 0 0Z" stroke="none" fill="none"></path><g id="SvgjsG2039"><text id="SvgjsText2040" font-family="微软雅黑" text-anchor="start" font-size="13px" width="112px" fill="#323232" font-weight="400" align="middle" lineHeight="125%" anchor="start" family="微软雅黑" size="13px" weight="400" font-style="" opacity="1" y="-6.625" transform="rotate(0)"><tspan id="SvgjsTspan2041" dy="16.25" x="10"><tspan id="SvgjsTspan2042" style=""> </tspan></tspan><tspan id="SvgjsTspan2043" dy="16.25" x="10"><tspan id="SvgjsTspan2044" style="">gw: 192.168.1.1</tspan></tspan><tspan id="SvgjsTspan2045" dy="16.25" x="10"><tspan id="SvgjsTspan2046" style="">ip  : 192.168.1.99</tspan></tspan><tspan id="SvgjsTspan2047" dy="16.25" x="10"><tspan id="SvgjsTspan2048" style=""> </tspan></tspan><tspan id="SvgjsTspan2049" dy="16.25" x="10"><tspan id="SvgjsTspan2050" style="">dhcp server</tspan></tspan><tspan id="SvgjsTspan2051" dy="16.25" x="10"><tspan id="SvgjsTspan2052" style="">start: 150</tspan></tspan><tspan id="SvgjsTspan2053" dy="16.25" x="10"><tspan id="SvgjsTspan2054" style="">limit:  100</tspan></tspan><tspan id="SvgjsTspan2055" dy="16.25" x="10"><tspan id="SvgjsTspan2056" style=""> </tspan></tspan></text></g></g><g id="SvgjsG2057"><path id="SvgjsPath2058" d="M157 570L206.25 570" stroke-dasharray="3,3" stroke="#323232" stroke-width="1.5" fill="none"></path></g></svg>