<svg id="SvgjsSvg1006" width="779" height="663" xmlns="http://www.w3.org/2000/svg" version="1.1" xmlns:xlink="http://www.w3.org/1999/xlink" xmlns:svgjs="http://svgjs.com/svgjs"><defs id="SvgjsDefs1007"><pattern patternUnits="userSpaceOnUse" id="pattern_mark_0" width="300" height="300"><text x="150" y="100" fill="rgba(229,229,229,0.8)" font-size="18" transform="rotate(-45, 150, 150)" style="dominant-baseline: middle; text-anchor: middle;"></text></pattern><pattern patternUnits="userSpaceOnUse" id="pattern_mark_1" width="300" height="300"><text x="150" y="200" fill="rgba(229,229,229,0.8)" font-size="18" transform="rotate(-45, 150, 150)" style="dominant-baseline: middle; text-anchor: middle;"></text></pattern><marker id="SvgjsMarker1083" markerWidth="13" markerHeight="9" refX="3.5" refY="4.5" viewBox="0 0 13 9" orient="auto" markerUnits="userSpaceOnUse" stroke-dasharray="0,0"><path id="SvgjsPath1084" d="M13,0 L0,4.5 L13,9 L13,0" fill="#323232" stroke="#323232" stroke-width="1"></path></marker><marker id="SvgjsMarker1085" markerWidth="13" markerHeight="9" refX="9.5" refY="4.5" viewBox="0 0 13 9" orient="auto" markerUnits="userSpaceOnUse" stroke-dasharray="0,0"><path id="SvgjsPath1086" d="M0,0 L13,4.5 L0,9 L0,0" fill="#323232" stroke="#323232" stroke-width="1"></path></marker><marker id="SvgjsMarker1089" markerWidth="13" markerHeight="9" refX="3.5" refY="4.5" viewBox="0 0 13 9" orient="auto" markerUnits="userSpaceOnUse" stroke-dasharray="0,0"><path id="SvgjsPath1090" d="M13,0 L0,4.5 L13,9 L13,0" fill="#323232" stroke="#323232" stroke-width="1"></path></marker><marker id="SvgjsMarker1091" markerWidth="13" markerHeight="9" refX="9.5" refY="4.5" viewBox="0 0 13 9" orient="auto" markerUnits="userSpaceOnUse" stroke-dasharray="0,0"><path id="SvgjsPath1092" d="M0,0 L13,4.5 L0,9 L0,0" fill="#323232" stroke="#323232" stroke-width="1"></path></marker><marker id="SvgjsMarker1095" markerWidth="13" markerHeight="9" refX="3.5" refY="4.5" viewBox="0 0 13 9" orient="auto" markerUnits="userSpaceOnUse" stroke-dasharray="0,0"><path id="SvgjsPath1096" d="M13,0 L0,4.5 L13,9 L13,0" fill="#323232" stroke="#323232" stroke-width="1"></path></marker><marker id="SvgjsMarker1097" markerWidth="13" markerHeight="9" refX="9.5" refY="4.5" viewBox="0 0 13 9" orient="auto" markerUnits="userSpaceOnUse" stroke-dasharray="0,0"><path id="SvgjsPath1098" d="M0,0 L13,4.5 L0,9 L0,0" fill="#323232" stroke="#323232" stroke-width="1"></path></marker><marker id="SvgjsMarker1155" markerWidth="13" markerHeight="9" refX="3.5" refY="4.5" viewBox="0 0 13 9" orient="auto" markerUnits="userSpaceOnUse" stroke-dasharray="0,0"><path id="SvgjsPath1156" d="M13,0 L0,4.5 L13,9 L13,0" fill="#323232" stroke="#323232" stroke-width="1"></path></marker><marker id="SvgjsMarker1157" markerWidth="13" markerHeight="9" refX="9.5" refY="4.5" viewBox="0 0 13 9" orient="auto" markerUnits="userSpaceOnUse" stroke-dasharray="0,0"><path id="SvgjsPath1158" d="M0,0 L13,4.5 L0,9 L0,0" fill="#323232" stroke="#323232" stroke-width="1"></path></marker><marker id="SvgjsMarker1161" markerWidth="13" markerHeight="9" refX="3.5" refY="4.5" viewBox="0 0 13 9" orient="auto" markerUnits="userSpaceOnUse" stroke-dasharray="0,0"><path id="SvgjsPath1162" d="M13,0 L0,4.5 L13,9 L13,0" fill="#323232" stroke="#323232" stroke-width="1"></path></marker><marker id="SvgjsMarker1163" markerWidth="13" markerHeight="9" refX="9.5" refY="4.5" viewBox="0 0 13 9" orient="auto" markerUnits="userSpaceOnUse" stroke-dasharray="0,0"><path id="SvgjsPath1164" d="M0,0 L13,4.5 L0,9 L0,0" fill="#323232" stroke="#323232" stroke-width="1"></path></marker></defs><rect id="svgbackgroundid" width="779" height="663" fill="transparent"></rect><rect id="SvgjsRect1009" width="779" height="663" fill="url(#pattern_mark_0)"></rect><rect id="SvgjsRect1010" width="779" height="663" fill="url(#pattern_mark_1)"></rect><g id="SvgjsG1011" transform="translate(163,376)"><path id="SvgjsPath1012" d="M 0 4Q 0 0 4 0L 448 0Q 452 0 452 4L 452 258Q 452 262 448 262L 4 262Q 0 262 0 258Z" stroke="rgba(33,41,48,1)" stroke-width="1.5" fill-opacity="1" fill="#ffffff"></path><g id="SvgjsG1013"><text id="SvgjsText1014" font-family="微软雅黑" text-anchor="middle" font-size="13px" width="432px" fill="#323232" font-weight="400" align="middle" lineHeight="125%" anchor="middle" family="微软雅黑" size="13px" weight="400" font-style="" opacity="1" y="120.375" transform="rotate(0)"></text></g></g><g id="SvgjsG1015" transform="translate(354,359)"><path id="SvgjsPath1016" d="M 0 4Q 0 0 4 0L 66 0Q 70 0 70 4L 70 26Q 70 30 66 30L 4 30Q 0 30 0 26Z" stroke="rgba(33,41,48,1)" stroke-width="1.5" fill-opacity="1" fill="#7f8b98"></path><g id="SvgjsG1017"><text id="SvgjsText1018" font-family="微软雅黑" text-anchor="middle" font-size="13px" width="50px" fill="#ffffff" font-weight="700" align="middle" lineHeight="125%" anchor="middle" family="微软雅黑" size="13px" weight="700" font-style="" opacity="1" y="4.375" transform="rotate(0)"><tspan id="SvgjsTspan1019" dy="16.25" x="35"><tspan id="SvgjsTspan1020" style="">enp1s0</tspan></tspan></text></g></g><g id="SvgjsG1021" transform="translate(194,389)"><path id="SvgjsPath1022" d="M 0 4Q 0 0 4 0L 386 0Q 390 0 390 4L 390 30Q 390 34 386 34L 4 34Q 0 34 0 30Z" stroke="rgba(33,41,48,1)" stroke-width="1.5" fill-opacity="1" fill="#7f8b98"></path><g id="SvgjsG1023"><text id="SvgjsText1024" font-family="微软雅黑" text-anchor="middle" font-size="13px" width="370px" fill="#ffffff" font-weight="700" align="middle" lineHeight="125%" anchor="middle" family="微软雅黑" size="13px" weight="700" font-style="" opacity="1" y="6.375" transform="rotate(0)"><tspan id="SvgjsTspan1025" dy="16.25" x="195"><tspan id="SvgjsTspan1026" style="">br0</tspan></tspan></text></g></g><g id="SvgjsG1027" transform="translate(220,422)"><path id="SvgjsPath1028" d="M 0 4Q 0 0 4 0L 66 0Q 70 0 70 4L 70 26Q 70 30 66 30L 4 30Q 0 30 0 26Z" stroke="rgba(33,41,48,1)" stroke-width="1.5" fill-opacity="1" fill="#7f8b98"></path><g id="SvgjsG1029"><text id="SvgjsText1030" font-family="微软雅黑" text-anchor="middle" font-size="13px" width="50px" fill="#ffffff" font-weight="700" align="middle" lineHeight="125%" anchor="middle" family="微软雅黑" size="13px" weight="700" font-style="" opacity="1" y="4.375" transform="rotate(0)"><tspan id="SvgjsTspan1031" dy="16.25" x="35"><tspan id="SvgjsTspan1032" style="">vnet1</tspan></tspan></text></g></g><g id="SvgjsG1033" transform="translate(354,422)"><path id="SvgjsPath1034" d="M 0 4Q 0 0 4 0L 66 0Q 70 0 70 4L 70 26Q 70 30 66 30L 4 30Q 0 30 0 26Z" stroke="rgba(33,41,48,1)" stroke-width="1.5" fill-opacity="1" fill="#7f8b98"></path><g id="SvgjsG1035"><text id="SvgjsText1036" font-family="微软雅黑" text-anchor="middle" font-size="13px" width="50px" fill="#ffffff" font-weight="700" align="middle" lineHeight="125%" anchor="middle" family="微软雅黑" size="13px" weight="700" font-style="" opacity="1" y="4.375" transform="rotate(0)"><tspan id="SvgjsTspan1037" dy="16.25" x="35"><tspan id="SvgjsTspan1038" style="">vnet2</tspan></tspan></text></g></g><g id="SvgjsG1039" transform="translate(488,422)"><path id="SvgjsPath1040" d="M 0 4Q 0 0 4 0L 66 0Q 70 0 70 4L 70 26Q 70 30 66 30L 4 30Q 0 30 0 26Z" stroke="rgba(33,41,48,1)" stroke-width="1.5" fill-opacity="1" fill="#7f8b98"></path><g id="SvgjsG1041"><text id="SvgjsText1042" font-family="微软雅黑" text-anchor="middle" font-size="13px" width="50px" fill="#ffffff" font-weight="700" align="middle" lineHeight="125%" anchor="middle" family="微软雅黑" size="13px" weight="700" font-style="" opacity="1" y="4.375" transform="rotate(0)"><tspan id="SvgjsTspan1043" dy="16.25" x="35"><tspan id="SvgjsTspan1044" style="">vnet3</tspan></tspan></text></g></g><g id="SvgjsG1045" transform="translate(207,537)"><path id="SvgjsPath1046" d="M 0 4Q 0 0 4 0L 92 0Q 96 0 96 4L 96 62Q 96 66 92 66L 4 66Q 0 66 0 62Z" stroke="rgba(33,41,48,1)" stroke-width="1.5" fill-opacity="1" fill="#ffffff"></path><g id="SvgjsG1047"><text id="SvgjsText1048" font-family="微软雅黑" text-anchor="middle" font-size="13px" width="76px" fill="#323232" font-weight="400" align="middle" lineHeight="125%" anchor="middle" family="微软雅黑" size="13px" weight="400" font-style="" opacity="1" y="22.375" transform="rotate(0)"><tspan id="SvgjsTspan1049" dy="16.25" x="48"><tspan id="SvgjsTspan1050" style="">OpenWrt</tspan></tspan></text></g></g><g id="SvgjsG1051" transform="translate(341,537)"><path id="SvgjsPath1052" d="M 0 4Q 0 0 4 0L 92 0Q 96 0 96 4L 96 62Q 96 66 92 66L 4 66Q 0 66 0 62Z" stroke="rgba(33,41,48,1)" stroke-width="1.5" fill-opacity="1" fill="#ffffff"></path><g id="SvgjsG1053"><text id="SvgjsText1054" font-family="微软雅黑" text-anchor="middle" font-size="13px" width="76px" fill="#323232" font-weight="400" align="middle" lineHeight="125%" anchor="middle" family="微软雅黑" size="13px" weight="400" font-style="" opacity="1" y="22.375" transform="rotate(0)"><tspan id="SvgjsTspan1055" dy="16.25" x="48"><tspan id="SvgjsTspan1056" style="">Ubuntu 22</tspan></tspan></text></g></g><g id="SvgjsG1057" transform="translate(475,537)"><path id="SvgjsPath1058" d="M 0 4Q 0 0 4 0L 92 0Q 96 0 96 4L 96 62Q 96 66 92 66L 4 66Q 0 66 0 62Z" stroke="rgba(33,41,48,1)" stroke-width="1.5" fill-opacity="1" fill="#ffffff"></path><g id="SvgjsG1059"><text id="SvgjsText1060" font-family="微软雅黑" text-anchor="middle" font-size="13px" width="76px" fill="#323232" font-weight="400" align="middle" lineHeight="125%" anchor="middle" family="微软雅黑" size="13px" weight="400" font-style="" opacity="1" y="22.375" transform="rotate(0)"><tspan id="SvgjsTspan1061" dy="16.25" x="48"><tspan id="SvgjsTspan1062" style="">Windows 10</tspan></tspan></text></g></g><g id="SvgjsG1063" transform="translate(231,537)"><path id="SvgjsPath1064" d="M 0 4Q 0 0 4 0L 44 0Q 48 0 48 4L 48 16Q 48 20 44 20L 4 20Q 0 20 0 16Z" stroke="rgba(33,41,48,1)" stroke-width="1.5" fill-opacity="1" fill="#7f8b98"></path><g id="SvgjsG1065"><text id="SvgjsText1066" font-family="微软雅黑" text-anchor="middle" font-size="13px" width="28px" fill="#ffffff" font-weight="700" align="middle" lineHeight="125%" anchor="middle" family="微软雅黑" size="13px" weight="700" font-style="" opacity="1" y="-0.625" transform="rotate(0)"><tspan id="SvgjsTspan1067" dy="16.25" x="24"><tspan id="SvgjsTspan1068" style="">eth0</tspan></tspan></text></g></g><g id="SvgjsG1069" transform="translate(365,537)"><path id="SvgjsPath1070" d="M 0 4Q 0 0 4 0L 44 0Q 48 0 48 4L 48 16Q 48 20 44 20L 4 20Q 0 20 0 16Z" stroke="rgba(33,41,48,1)" stroke-width="1.5" fill-opacity="1" fill="#7f8b98"></path><g id="SvgjsG1071"><text id="SvgjsText1072" font-family="微软雅黑" text-anchor="middle" font-size="13px" width="28px" fill="#ffffff" font-weight="700" align="middle" lineHeight="125%" anchor="middle" family="微软雅黑" size="13px" weight="700" font-style="" opacity="1" y="-0.625" transform="rotate(0)"><tspan id="SvgjsTspan1073" dy="16.25" x="24"><tspan id="SvgjsTspan1074" style="">eth0</tspan></tspan></text></g></g><g id="SvgjsG1075" transform="translate(499,537)"><path id="SvgjsPath1076" d="M 0 4Q 0 0 4 0L 44 0Q 48 0 48 4L 48 16Q 48 20 44 20L 4 20Q 0 20 0 16Z" stroke="rgba(33,41,48,1)" stroke-width="1.5" fill-opacity="1" fill="#7f8b98"></path><g id="SvgjsG1077"><text id="SvgjsText1078" font-family="微软雅黑" text-anchor="middle" font-size="13px" width="28px" fill="#ffffff" font-weight="700" align="middle" lineHeight="125%" anchor="middle" family="微软雅黑" size="13px" weight="700" font-style="" opacity="1" y="-0.625" transform="rotate(0)"><tspan id="SvgjsTspan1079" dy="16.25" x="24"><tspan id="SvgjsTspan1080" style="">eth0</tspan></tspan></text></g></g><g id="SvgjsG1081"><path id="SvgjsPath1082" d="M255 454.70000000000005L255 494.5L255 494.5L255 534.3" stroke-dasharray="8,5" stroke="#323232" stroke-width="1.5" fill="none" marker-start="url(#SvgjsMarker1083)" marker-end="url(#SvgjsMarker1085)"></path></g><g id="SvgjsG1087"><path id="SvgjsPath1088" d="M389 454.70000000000005L389 494.5L389 494.5L389 534.3" stroke-dasharray="8,5" stroke="#323232" stroke-width="1.5" fill="none" marker-start="url(#SvgjsMarker1089)" marker-end="url(#SvgjsMarker1091)"></path></g><g id="SvgjsG1093"><path id="SvgjsPath1094" d="M523 454.70000000000005L523 494.5L523 494.5L523 534.3" stroke-dasharray="8,5" stroke="#323232" stroke-width="1.5" fill="none" marker-start="url(#SvgjsMarker1095)" marker-end="url(#SvgjsMarker1097)"></path></g><g id="SvgjsG1099" transform="translate(163,25)"><path id="SvgjsPath1100" d="M 0 4Q 0 0 4 0L 448 0Q 452 0 452 4L 452 84Q 452 88 448 88L 4 88Q 0 88 0 84Z" stroke="rgba(33,41,48,1)" stroke-width="1.5" fill-opacity="1" fill="#ffffff"></path><g id="SvgjsG1101"><text id="SvgjsText1102" font-family="微软雅黑" text-anchor="middle" font-size="13px" width="432px" fill="#323232" font-weight="400" align="middle" lineHeight="125%" anchor="middle" family="微软雅黑" size="13px" weight="400" font-style="" opacity="1" y="33.375" transform="rotate(0)"><tspan id="SvgjsTspan1103" dy="16.25" x="226"><tspan id="SvgjsTspan1104" style="">5G CPE</tspan></tspan></text></g></g><g id="SvgjsG1105" transform="translate(61,374.25)"><path id="SvgjsPath1106" d="M 0 0L 100 0L 100 48.75L 0 48.75Z" stroke="none" fill="none"></path><g id="SvgjsG1107"><text id="SvgjsText1108" font-family="微软雅黑" text-anchor="middle" font-size="13px" width="100px" fill="#323232" font-weight="400" align="middle" lineHeight="125%" anchor="middle" family="微软雅黑" size="13px" weight="400" font-style="" opacity="1" y="5.25" transform="rotate(0)"><tspan id="SvgjsTspan1109" dy="16.25" x="50"><tspan id="SvgjsTspan1110" style="">AMD 5700U</tspan></tspan><tspan id="SvgjsTspan1111" dy="16.25" x="50"><tspan id="SvgjsTspan1112" style="">小主机</tspan></tspan></text></g></g><g id="SvgjsG1113" transform="translate(163,209)"><path id="SvgjsPath1114" d="M 0 4Q 0 0 4 0L 448 0Q 452 0 452 4L 452 50Q 452 54 448 54L 4 54Q 0 54 0 50Z" stroke="rgba(33,41,48,1)" stroke-width="1.5" fill-opacity="1" fill="#ffffff"></path><g id="SvgjsG1115"><text id="SvgjsText1116" font-family="微软雅黑" text-anchor="middle" font-size="13px" width="432px" fill="#323232" font-weight="400" align="middle" lineHeight="125%" anchor="middle" family="微软雅黑" size="13px" weight="400" font-style="" opacity="1" y="16.375" transform="rotate(0)"></text></g></g><g id="SvgjsG1117" transform="translate(355,89)"><path id="SvgjsPath1118" d="M 0 4Q 0 0 4 0L 64 0Q 68 0 68 4L 68 20Q 68 24 64 24L 4 24Q 0 24 0 20Z" stroke="rgba(33,41,48,1)" stroke-width="1.5" fill-opacity="1" fill="#7f8b98"></path><g id="SvgjsG1119"><text id="SvgjsText1120" font-family="微软雅黑" text-anchor="middle" font-size="13px" width="48px" fill="#ffffff" font-weight="400" align="middle" lineHeight="125%" anchor="middle" family="微软雅黑" size="13px" weight="400" font-style="" opacity="1" y="1.375" transform="rotate(0)"><tspan id="SvgjsTspan1121" dy="16.25" x="34"><tspan id="SvgjsTspan1122" style="">LAN</tspan></tspan></text></g></g><g id="SvgjsG1123" transform="translate(187.5,221.5)"><path id="SvgjsPath1124" d="M 0 4Q 0 0 4 0L 53.5 0Q 57.5 0 57.5 4L 57.5 25Q 57.5 29 53.5 29L 4 29Q 0 29 0 25Z" stroke="rgba(33,41,48,1)" stroke-width="1.5" fill-opacity="1" fill="#7f8b98"></path><g id="SvgjsG1125"><text id="SvgjsText1126" font-family="微软雅黑" text-anchor="middle" font-size="13px" width="38px" fill="#323232" font-weight="400" align="middle" lineHeight="125%" anchor="middle" family="微软雅黑" size="13px" weight="400" font-style="" opacity="1" y="3.875" transform="rotate(0)"><tspan id="SvgjsTspan1127" dy="16.25" x="29"><tspan id="SvgjsTspan1128" style="fill: rgb(255, 255, 255);">网口1</tspan></tspan></text></g></g><g id="SvgjsG1129" transform="translate(360.25,221.5)"><path id="SvgjsPath1130" d="M 0 4Q 0 0 4 0L 53.5 0Q 57.5 0 57.5 4L 57.5 25Q 57.5 29 53.5 29L 4 29Q 0 29 0 25Z" stroke="rgba(33,41,48,1)" stroke-width="1.5" fill-opacity="1" fill="#7f8b98"></path><g id="SvgjsG1131"><text id="SvgjsText1132" font-family="微软雅黑" text-anchor="middle" font-size="13px" width="38px" fill="#ffffff" font-weight="400" align="middle" lineHeight="125%" anchor="middle" family="微软雅黑" size="13px" weight="400" font-style="" opacity="1" y="3.875" transform="rotate(0)"><tspan id="SvgjsTspan1133" dy="16.25" x="29"><tspan id="SvgjsTspan1134" style="">网口3</tspan></tspan></text></g></g><g id="SvgjsG1135" transform="translate(273.875,221.5)"><path id="SvgjsPath1136" d="M 0 4Q 0 0 4 0L 53.5 0Q 57.5 0 57.5 4L 57.5 25Q 57.5 29 53.5 29L 4 29Q 0 29 0 25Z" stroke="rgba(33,41,48,1)" stroke-width="1.5" fill-opacity="1" fill="#7f8b98"></path><g id="SvgjsG1137"><text id="SvgjsText1138" font-family="微软雅黑" text-anchor="middle" font-size="13px" width="38px" fill="#ffffff" font-weight="400" align="middle" lineHeight="125%" anchor="middle" family="微软雅黑" size="13px" weight="400" font-style="" opacity="1" y="3.875" transform="rotate(0)"><tspan id="SvgjsTspan1139" dy="16.25" x="29"><tspan id="SvgjsTspan1140" style="">网口2</tspan></tspan></text></g></g><g id="SvgjsG1141" transform="translate(446.625,221.5)"><path id="SvgjsPath1142" d="M 0 4Q 0 0 4 0L 53.5 0Q 57.5 0 57.5 4L 57.5 25Q 57.5 29 53.5 29L 4 29Q 0 29 0 25Z" stroke="rgba(33,41,48,1)" stroke-width="1.5" fill-opacity="1" fill="#7f8b98"></path><g id="SvgjsG1143"><text id="SvgjsText1144" font-family="微软雅黑" text-anchor="middle" font-size="13px" width="38px" fill="#ffffff" font-weight="400" align="middle" lineHeight="125%" anchor="middle" family="微软雅黑" size="13px" weight="400" font-style="" opacity="1" y="3.875" transform="rotate(0)"><tspan id="SvgjsTspan1145" dy="16.25" x="29"><tspan id="SvgjsTspan1146" style="">网口4</tspan></tspan></text></g></g><g id="SvgjsG1147" transform="translate(533,221.5)"><path id="SvgjsPath1148" d="M 0 4Q 0 0 4 0L 53.5 0Q 57.5 0 57.5 4L 57.5 25Q 57.5 29 53.5 29L 4 29Q 0 29 0 25Z" stroke="rgba(33,41,48,1)" stroke-width="1.5" fill-opacity="1" fill="#7f8b98"></path><g id="SvgjsG1149"><text id="SvgjsText1150" font-family="微软雅黑" text-anchor="middle" font-size="13px" width="38px" fill="#ffffff" font-weight="400" align="middle" lineHeight="125%" anchor="middle" family="微软雅黑" size="13px" weight="400" font-style="" opacity="1" y="3.875" transform="rotate(0)"><tspan id="SvgjsTspan1151" dy="16.25" x="29"><tspan id="SvgjsTspan1152" style="">网口5</tspan></tspan></text></g></g><g id="SvgjsG1153"><path id="SvgjsPath1154" d="M389 115.69999999999999L389 167.25L216.25 167.25L216.25 218.8" stroke="#323232" stroke-width="1.5" fill="none" marker-start="url(#SvgjsMarker1155)" marker-end="url(#SvgjsMarker1157)"></path></g><g id="SvgjsG1159"><path id="SvgjsPath1160" d="M389 356.3L389 304.75L302.625 304.75L302.625 253.2" stroke="#323232" stroke-width="1.5" fill="none" marker-start="url(#SvgjsMarker1161)" marker-end="url(#SvgjsMarker1163)"></path></g><g id="SvgjsG1165" transform="translate(63,216)"><path id="SvgjsPath1166" d="M 0 0L 100 0L 100 40L 0 40Z" stroke="none" fill="none"></path><g id="SvgjsG1167"><text id="SvgjsText1168" font-family="微软雅黑" text-anchor="middle" font-size="13px" width="100px" fill="#323232" font-weight="400" align="middle" lineHeight="125%" anchor="middle" family="微软雅黑" size="13px" weight="400" font-style="" opacity="1" y="9.375" transform="rotate(0)"><tspan id="SvgjsTspan1169" dy="16.25" x="50"><tspan id="SvgjsTspan1170" style="">5口千兆交换机</tspan></tspan></text></g></g><g id="SvgjsG1171" transform="translate(63,51.625)"><path id="SvgjsPath1172" d="M 0 0L 100 0L 100 40L 0 40Z" stroke="none" fill="none"></path><g id="SvgjsG1173"><text id="SvgjsText1174" font-family="微软雅黑" text-anchor="middle" font-size="13px" width="100px" fill="#323232" font-weight="400" align="middle" lineHeight="125%" anchor="middle" family="微软雅黑" size="13px" weight="400" font-style="" opacity="1" y="9.375" transform="rotate(0)"><tspan id="SvgjsTspan1175" dy="16.25" x="50"><tspan id="SvgjsTspan1176" style="">VN009</tspan></tspan></text></g></g><g id="SvgjsG1177" transform="translate(417.75,80)"><path id="SvgjsPath1178" d="M 0 0L 100 0L 100 40L 0 40Z" stroke="none" fill="none"></path><g id="SvgjsG1179"><text id="SvgjsText1180" font-family="微软雅黑" text-anchor="middle" font-size="13px" width="100px" fill="#323232" font-weight="400" align="middle" lineHeight="125%" anchor="middle" family="微软雅黑" size="13px" weight="400" font-style="" opacity="1" y="9.375" transform="rotate(0)"><tspan id="SvgjsTspan1181" dy="16.25" x="50"><tspan id="SvgjsTspan1182" style="">192.168.1.1</tspan></tspan></text></g></g><g id="SvgjsG1183" transform="translate(622,379.125)"><path id="SvgjsPath1184" d="M 0 0L 116 0L 132 16L 132 53.75L 0 53.75L 0 0Z" stroke="none" fill-opacity="1" fill="#fff7bc"></path><path id="SvgjsPath1185" d="M 116 0L 116 16L 132 16Z" stroke="none" fill-opacity="1" fill="#e4d089"></path><path id="SvgjsPath1186" d="M 0 0L 116 0L 132 16L 132 53.75L 0 53.75L 0 0Z" stroke="none" fill="none"></path><g id="SvgjsG1187"><text id="SvgjsText1188" font-family="微软雅黑" text-anchor="start" font-size="13px" width="112px" fill="#323232" font-weight="400" align="middle" lineHeight="125%" anchor="start" family="微软雅黑" size="13px" weight="400" font-style="" opacity="1" y="7.75" transform="rotate(0)"><tspan id="SvgjsTspan1189" dy="16.25" x="10"><tspan id="SvgjsTspan1190" style="">gw: 192.168.1.1</tspan></tspan><tspan id="SvgjsTspan1191" dy="16.25" x="10"><tspan id="SvgjsTspan1192" style="">ip  : 192.168.1.100</tspan></tspan></text></g></g><g id="SvgjsG1193"><path id="SvgjsPath1194" d="M622 406L603 406L603 406L584.75 406" stroke-dasharray="3,3" stroke="#323232" stroke-width="1.5" fill="none"></path></g><g id="SvgjsG1195" transform="translate(25,509)"><path id="SvgjsPath1196" d="M 0 0L 116 0L 132 16L 132 122L 0 122L 0 0Z" stroke="none" fill-opacity="1" fill="#fff7bc"></path><path id="SvgjsPath1197" d="M 116 0L 116 16L 132 16Z" stroke="none" fill-opacity="1" fill="#e4d089"></path><path id="SvgjsPath1198" d="M 0 0L 116 0L 132 16L 132 122L 0 122L 0 0Z" stroke="none" fill="none"></path><g id="SvgjsG1199"><text id="SvgjsText1200" font-family="微软雅黑" text-anchor="start" font-size="13px" width="112px" fill="#323232" font-weight="400" align="middle" lineHeight="125%" anchor="start" family="微软雅黑" size="13px" weight="400" font-style="" opacity="1" y="-6.625" transform="rotate(0)"><tspan id="SvgjsTspan1201" dy="16.25" x="10"><tspan id="SvgjsTspan1202" style=""> </tspan></tspan><tspan id="SvgjsTspan1203" dy="16.25" x="10"><tspan id="SvgjsTspan1204" style="">gw: 192.168.1.1</tspan></tspan><tspan id="SvgjsTspan1205" dy="16.25" x="10"><tspan id="SvgjsTspan1206" style="">ip  : 192.168.1.99</tspan></tspan><tspan id="SvgjsTspan1207" dy="16.25" x="10"><tspan id="SvgjsTspan1208" style=""> </tspan></tspan><tspan id="SvgjsTspan1209" dy="16.25" x="10"><tspan id="SvgjsTspan1210" style="">dhcp server</tspan></tspan><tspan id="SvgjsTspan1211" dy="16.25" x="10"><tspan id="SvgjsTspan1212" style="">start: 150</tspan></tspan><tspan id="SvgjsTspan1213" dy="16.25" x="10"><tspan id="SvgjsTspan1214" style="">limit:  100</tspan></tspan><tspan id="SvgjsTspan1215" dy="16.25" x="10"><tspan id="SvgjsTspan1216" style=""> </tspan></tspan></text></g></g><g id="SvgjsG1217"><path id="SvgjsPath1218" d="M157 570L182 570L182 570L206.25 570" stroke-dasharray="3,3" stroke="#323232" stroke-width="1.5" fill="none"></path></g></svg>